<?xml version="1.0" standalone="no"?>
<!DOCTYPE svg PUBLIC "-//W3C//DTD SVG 1.1//EN" "http://www.w3.org/Graphics/SVG/1.1/DTD/svg11.dtd" >
<svg xmlns="http://www.w3.org/2000/svg">
<metadata>Generated by IcoMoon</metadata>
<defs>
<font id="menu-icon" horiz-adv-x="1024">
<font-face units-per-em="1024" ascent="960" descent="-64" />
<missing-glyph horiz-adv-x="1024" />
<glyph unicode="&#x20;" horiz-adv-x="512" d="" />
<glyph unicode="&#xe600;" glyph-name="menu-shifts" d="M496.004 521.533c-5.208 12.152-17.36 20.088-29.264 24.8l-79.361 36.704-38.192 32.24-61.256-60.76 25.544-171.369c0-0.496 0-1.24-0.496-1.736l-27.032-36.952c-0.496-0.496-1.24-0.992-1.736-0.992s-1.488 0.248-1.736 0.992l-27.032 36.952c-0.248 0.496-0.496 0.992-0.496 1.736l25.544 171.369-61.256 60.76-38.192-32.24-79.361-36.704c-11.656-4.712-25.792-15.872-29.264-24.8 0 0-86.305-205.594-39.432-205.594h502.7c46.624 0-39.68 205.594-39.68 205.594zM284.21 616.269c81.345 0 141.857 75.641 143.345 202.866 0.744 88.041-41.168 140.865-143.345 140.865s-144.337-52.824-143.345-140.865c1.24-126.977 62-202.866 143.345-202.866zM951.583 141.842c-5.208 12.152-17.36 20.088-29.264 24.8l-79.361 36.704-38.192 32.24-61.256-61.008 25.544-171.617c0-0.496 0-1.24-0.496-1.736l-27.032-36.952c-0.496-0.496-1.24-0.992-1.736-0.992-0.744 0-1.488 0.248-1.736 0.992l-27.032 36.952c-0.248 0.496-0.496 0.992-0.496 1.736l25.544 171.617-61.256 61.008-38.192-32.24-79.361-36.704c-11.656-4.712-25.296-15.624-29.264-24.8 0 0-86.305-205.594-39.432-205.594h502.7c46.624-0.248-39.68 205.594-39.68 205.594zM596.445 439.444c1.488-126.977 62-202.866 143.345-202.866s141.857 75.641 143.345 202.866c0.992 88.041-41.168 140.865-143.345 140.865s-144.337-52.824-143.345-140.865zM402.755 8.665c-102.921 0-195.426 59.272-239.074 150.289l22.816 4.464c5.704 1.24 10.664 5.208 12.4 10.912 1.984 5.704 0.744 11.656-3.224 16.368l-67.705 78.121c-3.224 3.72-7.688 5.704-12.4 5.704-0.992 0-1.984 0-3.224-0.248-5.704-0.992-10.664-5.208-12.4-10.912l-33.976-97.713c-1.984-5.704-0.744-11.904 3.224-16.368s9.92-6.448 15.624-5.456l28.52 5.456c49.352-114.825 162.689-190.217 289.418-190.217 13.64 0 24.8 11.16 24.8 24.8s-11.16 24.8-24.8 24.8zM499.228 880.887c102.921 0 195.426-59.272 239.074-150.289l-22.816-4.464c-5.704-0.992-10.664-5.208-12.4-10.912-1.984-5.704-0.744-11.904 3.224-16.368l67.705-78.121c3.224-3.72 7.688-5.704 12.4-5.704 0.992 0 1.984 0 3.224 0.248 5.704 0.992 10.664 5.208 12.4 10.912l33.728 97.713c1.984 5.704 0.744 11.904-3.224 16.368s-9.92 6.448-15.624 5.456l-28.272-5.456c-49.352 114.825-162.689 190.217-289.418 190.217-13.64 0-24.8-11.16-24.8-24.8s11.16-24.8 24.8-24.8z" />
<glyph unicode="&#xe601;" glyph-name="menu-profile" d="M510.97 960c-282.27 0-510.97-228.7-510.97-510.97s228.7-510.97 510.97-510.97c282.27 0 510.97 228.7 510.97 510.97 2.060 282.27-228.7 510.97-510.97 510.97zM805.602 166.761c0 12.362 0 20.604 0 20.604 0 70.052-80.354 94.777-123.622 113.32-16.483 6.181-45.328 20.604-76.233 35.026-10.302 4.121-18.543 18.543-20.604 28.845l-4.121 32.966c22.664 20.604 43.268 51.509 47.388 84.475h6.181c8.241 0 16.483 6.181 16.483 14.423l8.241 51.509c2.060 10.302-8.241 16.483-16.483 16.483 0 2.060 0 2.060 0 2.060 2.060 6.181 2.060 12.362 2.060 18.543 0 4.121 0 10.302 2.060 14.423 0 24.724-4.121 45.328-10.302 55.63-6.181 16.483-16.483 32.966-30.905 45.328-39.147 37.087-86.535 53.569-125.682 22.664-26.785 4.121-59.751-8.241-82.414-35.026-12.362-14.423-20.604-30.905-24.724-47.388-2.060-10.302-4.121-22.664-6.181-37.087 0-14.423 0-28.845 4.121-39.147-8.241 0-16.483-6.181-16.483-16.483l8.241-51.509c2.060-8.241 8.241-14.423 16.483-14.423h4.121c8.241-37.087 26.785-65.932 47.388-86.535l2.060-30.905c-2.060-10.302-10.302-24.724-20.604-28.845-28.845-14.423-57.69-28.845-76.233-35.026-41.207-16.483-123.622-43.268-123.622-113.32v-16.483c-67.992 72.113-109.199 171.010-109.199 278.149 0 224.579 183.372 407.952 407.952 407.952s407.952-183.372 407.952-407.952c2.060-109.199-43.268-208.097-113.32-282.27z" />
<glyph unicode="&#xe602;" glyph-name="menu-pay" horiz-adv-x="1448" d="M994.93 521.020c0 0.172 0 0.344 0 0.516-0.172 0.86-0.344 1.892-0.516 2.752 0 0 0 0 0 0-0.172 0.86-0.516 1.72-0.86 2.58-0.172 0.172-0.172 0.516-0.344 0.688-0.344 0.688-0.516 1.204-0.86 1.72-0.172 0.172-0.344 0.516-0.516 0.688 0 0.172-0.172 0.344-0.172 0.344-0.344 0.516-0.688 1.032-1.032 1.548 0 0.172-0.172 0.172-0.172 0.344-0.516 0.688-1.204 1.376-1.892 2.064-0.172 0.172-0.172 0.172-0.344 0.344-0.516 0.516-1.204 1.032-1.72 1.548-0.172 0.172-0.344 0.172-0.516 0.344-0.86 0.688-1.72 1.204-2.58 1.72l-341.62 194.376 196.44 123.678 329.407-187.323-138.815-87.383c-10.837-6.881-14.105-21.158-7.225-31.995s21.158-14.105 31.995-7.225l171.498 108.025c6.881 4.3 11.009 12.041 10.837 20.126s-4.644 15.653-11.697 19.61l-375.163 213.297c-7.397 4.3-16.513 3.956-23.738-0.516l-240.82-151.716c0 0-0.172 0-0.172-0.172l-120.41-75.858c0 0-0.172 0-0.172-0.172l-240.992-151.716c-6.881-4.3-11.009-12.041-10.837-20.126s4.644-15.653 11.697-19.61l375.163-213.297c3.612-2.064 7.569-3.096 11.525-3.096 4.3 0 8.601 1.204 12.385 3.612l171.498 108.025c10.837 6.881 14.105 21.158 7.225 31.995s-21.158 14.105-31.995 7.225l-159.801-100.628-329.235 187.667 196.44 123.678 351.425-199.708v-264.558c0-8.429 4.644-16.169 12.041-20.298 3.44-1.892 7.397-2.924 11.181-2.924 4.3 0 8.601 1.204 12.385 3.612l120.582 75.858c6.709 4.3 10.837 11.697 10.837 19.61v277.975c0 0.172 0 0.344 0 0.344-0.172 0.86-0.344 1.72-0.344 2.408zM874.52 206.406v236.003c0 8.257-4.472 15.997-11.697 20.126l-341.448 194.204 76.030 47.82 329.407-187.323-28.898-18.061c-10.837-6.881-14.105-21.158-7.225-31.995 4.472-7.053 11.869-10.837 19.61-10.837 4.3 0 8.429 1.204 12.385 3.612l26.146 16.341v-223.274l-74.31-46.616zM1200.486 597.050l-171.498-108.025c-10.837-6.881-14.105-21.158-7.225-31.995 4.472-7.053 11.869-10.837 19.61-10.837 4.3 0 8.429 1.204 12.385 3.612l171.498 108.025c10.837 6.881 14.105 21.158 7.225 31.995-6.709 10.837-21.158 14.105-31.995 7.225zM769.591 325.612l-159.801-100.628-363.122 206.417c-11.181 6.365-25.286 2.408-31.651-8.773s-2.408-25.286 8.773-31.651l375.163-213.297c3.612-2.064 7.569-3.096 11.525-3.096 4.3 0 8.601 1.204 12.385 3.612l171.498 108.025c10.837 6.881 14.105 21.158 7.225 31.995-6.881 11.009-21.158 14.277-31.995 7.397zM1200.486 504.335l-171.498-108.025c-10.837-6.881-14.105-21.158-7.225-31.995 4.472-7.053 11.869-10.837 19.61-10.837 4.3 0 8.429 1.204 12.385 3.612l171.498 108.025c10.837 6.881 14.105 21.158 7.225 31.995-6.709 10.837-21.158 14.105-31.995 7.225zM769.591 232.896l-159.801-100.628-363.122 206.417c-11.181 6.365-25.286 2.408-31.651-8.773s-2.408-25.286 8.773-31.651l375.163-213.297c3.612-2.064 7.569-3.096 11.525-3.096 4.3 0 8.601 1.204 12.385 3.612l171.498 108.025c10.837 6.881 14.105 21.158 7.225 31.995-6.881 11.009-21.158 14.277-31.995 7.397zM1200.486 411.619l-171.498-108.025c-10.837-6.881-14.105-21.158-7.225-31.995 4.472-7.053 11.869-10.837 19.61-10.837 4.3 0 8.429 1.204 12.385 3.612l171.498 108.025c10.837 6.881 14.105 21.158 7.225 31.995-6.709 10.837-21.158 14.105-31.995 7.225zM769.591 140.353l-159.801-100.628-363.122 206.417c-11.181 6.365-25.286 2.408-31.651-8.773s-2.408-25.286 8.773-31.651l375.163-213.297c3.612-2.064 7.569-3.096 11.525-3.096 4.3 0 8.601 1.204 12.385 3.612l171.498 108.025c10.837 6.881 14.105 21.158 7.225 31.995s-21.158 14.105-31.995 7.397z" />
<glyph unicode="&#xe603;" glyph-name="menu-overtime" horiz-adv-x="1448" d="M561.798 369.82l-25.802-24.942c-3.612-3.612-5.676-8.429-5.676-13.417v-10.665c0-10.321 8.429-18.75 18.75-18.75h153.953c10.321 0 18.75 8.429 18.75 18.75v13.761c0 10.321-8.429 18.75-18.75 18.75h-84.975l2.408 2.236c55.561 53.496 94.952 95.64 94.952 150.512 0 43.864-28.554 88.071-92.2 88.071-27.866 0-55.045-8.945-76.718-25.114-7.053-5.332-9.461-14.793-5.848-22.706l4.816-10.493c2.236-5.16 6.709-8.945 12.041-10.321 5.332-1.548 11.181-0.516 15.653 2.752 13.933 9.805 28.21 14.621 42.659 14.621 27.866 0 42.143-13.933 42.143-41.111-0.516-36.983-31.135-70.010-96.156-131.935zM842.353 589.482c-0.516 0-1.032 0-1.548 0h-5.676c-6.193 0-11.869-2.924-15.309-8.085l-114.905-164.445c-2.236-3.096-3.44-6.881-3.44-10.665v-13.245c0-10.321 8.429-18.75 18.75-18.75h104.929v-53.668c0-10.321 8.429-18.75 18.75-18.75h17.889c10.321 0 18.75 8.429 18.75 18.75v53.668h18.578c10.321 0 18.75 8.429 18.75 18.75v12.213c0 10.321-8.429 18.75-18.75 18.75h-18.578v146.728c0 10.321-8.429 18.75-18.75 18.75h-17.889c-0.516 0.172-1.032 0.172-1.548 0zM825.152 424.176h-56.593c14.449 20.986 39.047 56.765 56.593 83.255v-83.255zM724.867 17.191c-220.866 0-400.621 179.755-400.621 400.621 0 209.169 161.177 381.355 365.702 399.073v-63.817c0-4.472 2.58-8.773 6.537-10.837 1.892-1.032 3.784-1.376 5.848-1.376 2.408 0 4.816 0.688 6.881 2.064l145.008 97.36c3.44 2.236 5.504 6.020 5.504 10.149s-2.064 7.913-5.504 10.149l-145.18 97.36c-3.784 2.58-8.601 2.752-12.557 0.688s-6.537-6.365-6.537-10.837v-49.54c-249.42-17.889-446.893-226.543-446.893-480.435 0-265.59 216.050-481.64 481.64-481.64 122.99 0 240.132 46.272 329.579 130.387l-55.389 59.173c-74.482-70.010-171.842-108.541-274.018-108.541zM1135.981 668.78c-16.513 27.178-35.951 52.808-57.625 76.202l-59.517-55.217c18.061-19.438 34.231-40.767 47.992-63.301l69.15 42.315zM1121.704 472.168l80.503 10.837c-4.3 31.651-11.697 62.957-22.19 92.888l-76.718-26.662c8.601-24.77 14.793-50.744 18.406-77.062zM1001.122 812.412c-26.146 18.406-54.184 34.059-83.255 46.788l-32.511-74.31c24.254-10.665 47.476-23.738 69.322-38.875l46.444 66.397zM1034.149 163.403l62.613-51.604c20.298 24.598 38.187 51.432 53.152 79.471l-71.558 38.187c-12.385-23.394-27.35-45.584-44.208-66.053zM1124.112 386.849c-2.064-26.49-6.709-52.808-13.933-78.266l78.094-22.018c8.601 30.619 14.277 62.269 16.685 94.092l-80.847 6.193z" />
<glyph unicode="&#xe604;" glyph-name="menu-news" d="M243.030 511.052c-27.535 0-27.535-42.301 0-42.301 108.945 0 217.889 0 326.834 0 27.535 0 27.535 42.301 0 42.301-109.344 0-217.889 0-326.834 0zM569.465 410.488c-108.945 0-217.889 0-326.834 0-27.535 0-27.535-42.301 0-42.301 108.945 0 217.889 0 326.834 0 27.535 0 27.535 42.301 0 42.301zM569.465 317.506c-108.945 0-217.889 0-326.834 0-27.535 0-27.535-42.301 0-42.301 108.945 0 217.889 0 326.834 0 27.535 0 27.535 42.301 0 42.301zM569.465 216.942c-108.945 0-217.889 0-326.834 0-27.535 0-27.535-42.301 0-42.301 108.945 0 217.889 0 326.834 0 27.535 0 27.535 42.301 0 42.301zM563.479 122.363c-108.945 0-217.889 0-326.834 0-27.136 0-27.136-42.301 0-42.301 108.945 0 217.889 0 326.834 0 27.136-0.399 27.136 42.301 0 42.301zM101.362 728.143v-792.143h610.17v682.401l-113.334 109.743h-496.836zM658.457-11.323h-504.418v686.79h416.624v-83.804h87.794v-602.987zM204.321 849.459v-91.386h52.677v38.709h417.023v-83.405h87.794v-603.386h-23.146v-52.677h75.822v682.401l-113.334 109.743zM809.303 960h-496.436v-91.785h52.677v39.108h416.624v-83.804h87.794v-602.987h-23.146v-52.677h75.822v682.401z" />
<glyph unicode="&#xe605;" glyph-name="menu-hours" horiz-adv-x="1448" d="M724.007 960c-282.619 0-511.914-229.295-511.914-511.914 0-282.791 229.295-511.914 511.914-511.914 282.791 0 511.914 229.295 511.914 511.914 0.172 282.619-228.951 511.914-511.914 511.914zM1062.359 187.141l-46.444 38.187c-1.892 1.548-4.644 1.376-6.365-0.688-1.548-1.892-1.376-4.644 0.688-6.193l46.616-38.359c-18.578-23.222-39.563-44.38-62.441-62.957l-37.671 48.164c-1.548 1.892-4.3 2.236-6.193 0.688s-2.236-4.3-0.688-6.365l37.671-48.164c-21.674-17.029-45.068-31.823-70.010-44.552l-28.21 53.496c-1.204 2.236-3.784 3.096-6.020 1.892-2.236-1.032-2.924-3.784-1.892-6.020l28.21-53.324c-27.178-13.073-55.733-23.566-85.663-30.791l-11.353 63.989c-0.516 2.408-2.752 3.956-5.16 3.612-2.408-0.516-3.956-2.752-3.612-5.16l11.525-64.161c-22.534-4.988-45.756-8.429-69.494-9.633v76.374c0 12.041-9.633 21.674-21.674 21.674s-21.674-9.805-21.674-21.674v-76.374c-19.782 1.032-39.219 3.784-58.141 7.397l9.633 53.84c0.516 2.408-1.204 4.816-3.612 5.16s-4.644-1.204-5.16-3.612l-9.633-53.668c-29.242 6.193-57.453 14.965-84.115 26.834l24.77 46.96c1.204 2.236 0.344 4.816-1.892 6.020-2.064 1.032-4.816 0.172-6.020-1.892l-24.942-47.304c-24.942 11.525-48.508 25.802-70.526 41.799l34.919 44.724c1.548 1.892 1.204 4.816-0.688 6.365s-4.816 1.204-6.365-0.688l-34.919-44.896c-23.394 17.889-45.068 38.015-64.505 60.205l45.928 37.843c1.892 1.548 2.236 4.3 0.688 6.365-1.548 1.892-4.3 2.064-6.365 0.688l-46.272-38.187c-18.75 22.534-34.919 47.304-48.852 73.278l54.184 28.382c2.236 1.204 3.096 3.784 1.892 6.020s-3.784 2.924-6.020 1.892l-54.012-28.382c-14.277 28.554-25.974 58.657-33.715 90.307l62.785 11.697c2.408 0.516 3.956 2.752 3.612 5.16-0.516 2.408-2.752 3.956-5.16 3.612l-62.785-11.697c-5.16 23.222-8.773 46.96-9.977 71.386h72.934c12.041 0 21.674 9.633 21.674 21.674s-9.805 21.674-21.674 21.674h-72.934c1.204 23.394 4.644 46.272 9.461 68.634 0.344 0 0.344-0.344 0.688-0.344l69.838-13.073c0.344 0 0.516 0 0.86 0 2.064 0 3.956 1.548 4.3 3.612 0.516 2.408-1.204 4.816-3.612 5.16l-69.838 13.073c-0.172 0-0.516-0.172-0.688-0.172 7.741 32.683 19.438 63.817 34.231 93.060l61.581-32.339c0.688-0.344 1.376-0.688 2.064-0.688 1.548 0 3.096 0.86 3.956 2.408 1.204 2.236 0.344 4.816-1.892 6.020l-61.581 32.511c14.105 26.662 30.619 51.776 49.712 74.654l52.808-43.52c0.86-0.688 1.892-1.032 2.924-1.032 1.376 0 2.58 0.516 3.44 1.548 1.548 1.892 1.376 4.816-0.688 6.193l-52.464 43.176c19.782 22.706 41.971 43.176 66.053 61.237l39.907-51.088c0.86-1.204 2.236-1.72 3.44-1.72 1.032 0 1.892 0.344 2.752 1.032 1.892 1.548 2.236 4.3 0.86 6.193l-39.907 50.916c22.534 16.169 46.616 30.446 72.074 41.971l28.382-53.668c0.86-1.548 2.408-2.408 3.956-2.408 0.688 0 1.376 0.172 2.064 0.516 2.064 1.032 2.924 3.784 1.892 6.020l-28.21 53.152c27.35 11.697 56.249 20.47 86.179 26.49l10.665-59.345c0.344-2.064 2.236-3.612 4.3-3.612 0.344 0 0.516 0 0.86 0 2.408 0.516 3.956 2.752 3.612 5.16l-10.665 59.345c17.029 2.924 34.403 5.332 52.12 6.193 0-0.344-0.172-0.688-0.172-0.86v-79.643c0-12.041 9.805-21.674 21.674-21.674 12.041 0 21.674 9.633 21.674 21.674v79.643c0 0.344-0.172 0.516-0.172 0.86 24.082-1.204 47.476-4.644 70.182-9.633l-12.041-67.602c-0.516-2.408 1.204-4.816 3.612-5.16 0.344 0 0.516 0 0.688 0 2.064 0 3.956 1.548 4.3 3.612l12.041 67.602c30.274-7.225 59.173-18.061 86.523-31.479l-29.586-56.421c-1.204-2.236-0.344-4.988 1.892-6.020 0.688-0.344 1.376-0.516 2.064-0.516 1.548 0 3.096 0.86 3.956 2.408l29.758 56.249c24.942-12.729 48.508-27.866 70.182-45.068l-39.391-50.4c-1.548-1.892-1.204-4.644 0.688-6.193 0.86-0.516 1.892-0.86 2.752-0.86 1.376 0 2.58 0.688 3.612 1.72l39.563 50.572c23.050-18.922 43.864-40.595 62.441-63.989l-48.336-39.735c-1.892-1.548-2.064-4.3-0.688-6.193 0.86-1.204 2.236-1.548 3.44-1.548 1.032 0 2.064 0.344 2.924 1.032l48.164 39.563c17.717-23.394 33.371-48.68 46.1-75.342l-53.324-28.038c-2.064-1.032-3.096-3.784-1.892-6.020 0.86-1.548 2.408-2.408 3.956-2.408 0.688 0 1.376 0.172 2.064 0.516l53.152 27.866c12.901-28.726 22.362-59.345 28.726-90.995l-56.765-10.665c-2.408-0.516-3.956-2.752-3.612-5.16 0.516-2.064 2.236-3.612 4.3-3.612 0.344 0 0.516 0 0.86 0.172l56.765 10.665c3.096-17.717 5.676-35.607 6.537-54.012h-73.45c-12.041 0-21.674-9.805-21.674-21.674 0-12.041 9.805-21.674 21.674-21.674h73.45c-1.032-19.61-3.784-38.703-7.225-57.453l-56.077 10.493c-2.408 0.344-4.816-1.204-5.16-3.612-0.516-2.408 1.204-4.644 3.612-5.16l56.077-10.493c-6.709-31.651-16.341-61.925-29.414-90.307l-51.776 27.178c-2.064 1.204-4.816 0.344-6.020-1.892s-0.344-4.816 1.892-6.020l51.776-27.178c-13.073-27.006-28.726-51.948-46.616-74.998zM1003.186 469.76h-243.744c-7.397 12.041-20.126 20.47-35.435 20.47-4.988 0-9.461-1.204-13.933-2.924l-168.574 168.574c-8.429 8.601-22.19 8.601-30.791 0-8.601-8.429-8.601-22.19 0-30.619l172.186-172.014c-0.172-1.892-1.032-3.44-1.032-5.16 0-13.245 6.193-24.77 15.653-32.511l-119.722-212.609 12.557-7.053 119.722 212.609c4.472-1.548 9.117-2.58 14.105-2.58 15.137 0 27.866 8.429 35.435 20.47h243.744c12.041 0 21.674 9.633 21.674 21.674-0.172 11.869-9.977 21.674-21.846 21.674z" />
<glyph unicode="&#xe606;" glyph-name="menu-filemanager" horiz-adv-x="1448" d="M1176.749 684.433h-8.257c-36.467 0-65.881 29.586-65.881 65.881v8.257c0 32.683-26.49 59.345-59.345 59.345h-282.103c-32.855 0-59.345-26.49-59.345-59.345v-8.257c0-36.467-29.586-65.881-65.881-65.881h-100.284v-54.356c0-9.461-7.741-17.201-17.201-17.201h-64.677v-71.902h64.677c9.461 0 17.201-7.741 17.201-17.201v-37.499c0-9.461-7.741-17.201-17.201-17.201h-94.608c-9.461 0-17.201 7.741-17.201 17.201v54.7h-64.677c-9.461 0-17.201 7.741-17.201 17.201v37.499c0 9.461 7.741 17.201 17.201 17.201h64.677v71.558h-135.203c-32.855 0-59.345-26.662-59.345-59.345v-475.619c0-39.391 31.995-71.386 71.214-71.386h881.4c39.391 0 71.214 31.995 71.214 71.386v475.619c0.172 32.683-26.49 59.345-59.173 59.345zM488.004 174.24c-13.417-18.578-35.091-29.758-57.969-29.758s-44.552 11.181-57.969 29.758c-13.417 18.578-16.857 42.832-9.461 64.505l26.49 77.75v87.727c0 9.461 7.741 17.201 17.201 17.201h47.648c9.461 0 17.201-7.741 17.201-17.201v-87.727l26.49-77.75c7.397-21.674 3.784-45.756-9.633-64.505zM452.913 262.999h-45.412l-12.041-35.435c-3.784-11.181-2.064-23.566 4.988-33.199 13.761-19.266 46.1-19.266 59.689 0 6.881 9.633 8.773 22.018 4.988 33.199l-12.213 35.435z" />
<glyph unicode="&#xe607;" glyph-name="menu-dashboard" d="M1006.813 493.857l-155.192 155.192v179.273c0 32.415-26.268 58.685-58.73 58.685-32.388 0-58.656-26.27-58.656-58.685v-61.889l-115.553 115.557c-57.131 57.099-156.461 56.998-213.462-0.103l-388.038-388.030c-22.907-22.952-22.907-60.090 0-83.008 22.917-22.946 60.128-22.946 83.037 0l388.001 388.041c12.64 12.574 34.918 12.574 47.492 0.037l388.067-388.078c11.507-11.474 26.51-17.181 41.508-17.181 15.029 0 30.057 5.713 41.529 17.181 22.915 22.915 22.915 60.053-0.002 83.008zM532.385 687.492c-11.274 11.267-29.527 11.267-40.768 0l-341.32-341.218c-5.389-5.387-8.444-12.741-8.444-20.416v-248.872c0-58.4 47.351-105.749 105.749-105.749h168.988v261.706h190.784v-261.706h168.99c58.396 0 105.747 47.349 105.747 105.747v248.874c0 7.675-3.028 15.029-8.444 20.416l-341.282 341.218z" />
<glyph unicode="&#xe608;" glyph-name="menu-benefits" d="M960.474 661.451l-63.526 61.141-334.323-347.982c-8.239-8.672-19.73-13.659-31.871-13.659 0 0 0 0 0 0-11.925 0-23.416 4.987-31.871 13.442l-174.316 180.604-248.249-261.258c-8.672-9.106-20.38-13.876-32.088-13.876-10.841 0-21.898 4.119-30.354 12.141-17.779 16.911-18.429 44.88-1.518 62.442l280.12 294.863c8.239 8.672 19.73 13.659 31.871 13.876 0 0 0.217 0 0.217 0 11.925 0 23.416-4.987 31.871-13.442l174.533-180.821 302.235 315.027-63.526 60.924 254.103 73.499-63.309-256.921zM44.23 220.89c-10.19 0-19.947 1.518-29.486 4.336v-247.599h132.689v305.27l-28.402-29.92c-19.296-20.38-46.614-32.088-74.8-32.088zM176.918-22.372h132.689v476.118l-132.689-139.627v-336.491zM456.605 333.632l-117.512 121.631v-477.635h132.689v342.996c-5.42 3.686-10.407 8.022-15.177 13.009zM530.971 301.978c-10.19 0-19.947 1.518-29.703 4.336v-328.686h132.689v385.924l-28.836-29.92c-19.296-19.947-46.398-31.654-74.149-31.654zM663.443 394.339v-416.711h132.689v554.82l-132.689-138.109zM898.683 639.119l-73.065-76.101v-585.391h132.689v604.253l-59.623 57.238z" />
<glyph unicode="&#xe609;" glyph-name="dash-timesheets" horiz-adv-x="800" d="M671.611 689.144h-121.609c-11.055 0-20.729 9.673-20.729 20.729v121.609c0 11.055 9.673 20.729 20.729 20.729s20.729-9.673 20.729-20.729v-102.262h102.262c11.055 0 20.729-9.673 20.729-20.729-1.382-9.673-11.055-19.347-22.111-19.347zM689.576 560.626h-454.65c-5.528 0-9.673 4.146-9.673 9.673s4.146 9.673 9.673 9.673h453.269c5.528 0 9.673-4.146 9.673-9.673 1.382-5.528-2.764-9.673-8.291-9.673zM689.576 472.184h-454.65c-5.528 0-9.673 4.146-9.673 9.673s4.146 9.673 9.673 9.673h453.269c5.528 0 9.673-4.146 9.673-9.673 1.382-4.146-2.764-9.673-8.291-9.673zM689.576 385.123h-454.65c-5.528 0-9.673 4.146-9.673 9.673s4.146 9.673 9.673 9.673h453.269c5.528 0 9.673-4.146 9.673-9.673s-2.764-9.673-8.291-9.673zM689.576 298.062h-454.65c-5.528 0-9.673 4.146-9.673 9.673s4.146 9.673 9.673 9.673h453.269c5.528 0 9.673-4.146 9.673-9.673 1.382-4.146-2.764-9.673-8.291-9.673zM689.576 211.001h-454.65c-5.528 0-9.673 4.146-9.673 9.673s4.146 9.673 9.673 9.673h453.269c5.528 0 9.673-4.146 9.673-9.673 1.382-5.528-2.764-9.673-8.291-9.673zM689.576 123.941h-454.65c-5.528 0-9.673 4.146-9.673 9.673s4.146 9.673 9.673 9.673h453.269c5.528 0 9.673-4.146 9.673-9.673 1.382-5.528-2.764-9.673-8.291-9.673zM787.692 773.441l-174.121 174.121c-8.291 8.291-17.965 12.437-29.020 12.437h-418.721c-22.111 0-41.457-17.965-41.457-41.457v-44.221c8.291 1.382 16.583 2.764 24.874 2.764 5.528 0 11.055 0 16.583-1.382v42.839h418.721l174.121-174.121v-766.964h-592.842v628.772c-5.528-1.382-11.055-1.382-16.583-1.382-8.291 0-16.583 1.382-24.874 2.764v-630.154c0-22.111 17.965-41.457 41.457-41.457h592.842c22.111 0 41.457 17.965 41.457 41.457v766.964c0 11.055-4.146 20.729-12.437 29.020zM152.011 588.265c-84.297 0-152.011 69.096-152.011 152.011 0 84.297 69.096 152.011 152.011 152.011 84.297 0 152.011-69.096 152.011-152.011 1.382-82.915-67.714-152.011-152.011-152.011zM152.011 859.12c-64.95 0-118.845-53.895-118.845-118.845s53.895-118.845 118.845-118.845 118.845 53.895 118.845 118.845c0 66.332-52.513 118.845-118.845 118.845zM152.011 665.652c6.91 0 12.437-5.528 12.437-12.437s-5.528-12.437-12.437-12.437-12.437 5.528-12.437 12.437 5.528 12.437 12.437 12.437zM240.453 752.713c6.91 0 12.437-5.528 12.437-12.437s-5.528-12.437-12.437-12.437-12.437 5.528-12.437 12.437 5.528 12.437 12.437 12.437zM214.197 810.753c6.91 0 12.437-5.528 12.437-12.437s-5.528-12.437-12.437-12.437-12.437 5.528-12.437 12.437 5.528 12.437 12.437 12.437zM211.433 694.672c6.91 0 12.437-5.528 12.437-12.437s-5.528-12.437-12.437-12.437-12.437 5.528-12.437 12.437 5.528 12.437 12.437 12.437zM110.553 684.999c-2.764 0-5.528 1.382-8.291 4.146-4.146 4.146-4.146 12.437 0 16.583l37.312 37.312v76.005c0 6.91 5.528 12.437 12.437 12.437s12.437-5.528 12.437-12.437v-80.151c0-2.764-1.382-5.528-4.146-8.291l-40.076-40.076c-2.764-4.146-6.91-5.528-9.673-5.528z" />
<glyph unicode="&#xe60d;" glyph-name="menu-todo" d="M162.156 166.398h180.645l24.745 146.922h-174.455l-30.936-146.922zM221.707 278.071h104.138l-12.865-76.408h-107.361l16.087 76.408zM390.061 457.437l-37.438-21.998-3.542-21.015h-101.26l15.177 72.079h84.673l52.401 30.427 0.484 2.845h-164.558l-29.173-138.6h170.388zM408.485 511.208l-89.617-52.040-23.384 22.482-23.261-14.152 40.898-43.243 117.167 68.841zM1016.342 810.135l-44.022 52.114c-11.553 13.676-32.010 15.398-45.702 3.845l-37.93-32.051 85.87-101.662 37.938 32.043c13.684 11.569 15.398 32.034 3.845 45.711zM853.661 606.007l-37.921-31.829 123.037-507.564h-882.383l130.343 537.639h399.056l54.705 44.35h-488.649l-151.849-626.346h995.18zM871.995 819.941l-346.737-292.884 85.887-101.678 346.72 292.909zM454.269 379.11l134.598 32.625-80.77 95.636z" />
<glyph unicode="&#xe60f;" glyph-name="menu-contact" d="M584.049 340.341c-7.246 7.246-17.184 11.387-27.536 11.387s-20.29-4.141-27.536-11.387l-51.552-51.552-250.514 250.514 51.552 51.552c15.321 15.321 15.321 39.958 0 55.279l-151.136 150.929c-7.66 7.66-17.598 11.387-27.536 11.387s-20.082-3.934-27.536-11.387l-51.759-51.552c-65.216-65.216 30.434-266.455 213.454-449.475 144.097-144.097 299.374-233.951 390.884-233.951 24.637 0 44.72 6.625 58.591 20.497v0l51.759 51.345c15.321 15.321 15.321 39.958 0 55.279l-151.136 151.136zM983.421 834.122h-695.227c-22.36 0-40.579-18.219-40.579-40.579v-18.219l79.916-79.916c20.497-20.497 31.884-47.825 31.884-77.017 0-28.985-11.387-56.521-31.884-77.017l-2.277-2.277 53.829-53.829 110.143 91.51-174.738 145.132c-11.18 9.317-12.629 25.672-3.52 36.852 9.317 11.18 25.672 12.629 36.852 3.52l287.78-238.92 287.78 238.92c11.18 9.11 27.536 7.66 36.852-3.52s7.66-27.536-3.52-36.852l-174.738-145.132 174.531-145.339c11.18-9.317 12.629-25.672 3.313-36.852v0c-9.317-11.18-25.672-12.629-36.852-3.313l-181.985 151.55-88.818-73.705c-4.762-3.934-10.766-6.004-16.77-6.004s-11.801 2.070-16.77 6.004l-88.818 73.705-114.077-94.615 60.869-60.869 2.277 2.277c9.524 9.524 20.497 16.563 32.091 21.946 13.871 6.211 28.985 9.938 44.72 9.938s30.848-3.52 44.72-9.938c11.801-5.383 22.774-12.629 32.091-21.946l63.56-63.56h287.366c22.36 0 40.579 18.219 40.579 40.579v426.908c0 22.36-18.012 40.579-40.579 40.579z" />
<glyph unicode="&#xe610;" glyph-name="menu-settings" d="M883.475 575.436l-17.453 41.225c59.58 135.109 55.669 139.021 44.234 150.756l-76.431 74.626-7.523 6.319h-8.726c-4.514 0-18.656 0-134.507-52.659l-42.729 17.152c-55.067 136.614-60.784 136.614-77.033 136.614h-107.425c-16.249 0-22.267 0-73.422-137.215l-42.428-17.152c-78.237 33.1-124.276 49.951-136.614 49.951l-10.231-0.301-82.149-80.343c-12.337-11.736-16.851-15.948 46.34-148.65l-17.453-41.225c-139.623-53.863-139.623-59.279-139.623-75.83v-105.62c0-16.55 0-22.267 140.225-72.52l17.453-41.225c-59.58-134.808-55.669-139.021-44.234-150.455l76.431-74.626 7.523-6.62h9.027c4.514 0 18.356 0 134.507 52.659l42.729-17.453c55.067-136.614 60.784-136.614 77.033-136.614h107.726c16.55 0 22.267 0 73.723 137.215l42.729 17.152c78.237-33.1 124.276-49.951 136.313-49.951l10.231 0.301 82.751 80.945c11.736 11.736 15.948 15.948-46.942 148.349l17.152 41.225c139.924 54.164 139.924 59.881 139.924 75.83v105.319c-0.602 16.851-0.602 22.568-141.127 72.82zM511.85 272.418c-98.699 0-179.042 78.839-179.042 175.732s80.343 175.431 179.042 175.431c98.699 0 178.741-78.839 178.741-175.431 0.301-96.893-80.042-175.732-178.741-175.732z" />
<glyph unicode="&#xe611;" glyph-name="menu-logout" d="M512 960c-17.409 0-63.358 0-63.358-44.807v-334.198c0-44.807 46.234-44.807 63.358-44.807s63.358 0 63.358 44.807v334.198c0 44.807-45.949 44.807-63.358 44.807zM908.7 644.923c-44.236 70.207-106.167 128.428-179.229 168.384-2.569 1.427-6.564 3.139-10.845 3.139-3.71 0-15.411-1.427-15.411-19.978v-91.327c0-15.697 10.274-23.402 15.126-27.398l1.142-0.856c87.331-68.21 139.559-170.667 139.559-273.695 0-191.501-155.826-347.327-347.327-347.327s-347.041 155.826-347.041 347.327c0 101.315 51.086 202.631 136.419 271.126 4.566 3.71 19.407 17.124 19.407 37.101v81.338c0 20.548-12.843 22.261-16.838 22.261-6.279 0-12.557-3.139-17.695-5.993-148.691-85.333-241.159-240.874-241.159-405.547 0-257.712 209.48-467.193 467.193-467.193s467.193 209.48 467.193 467.193c0 84.477-24.259 168.098-70.493 241.445z" />
<glyph unicode="&#xe612;" glyph-name="target" d="M512 618.667c-94.293 0-170.667-76.373-170.667-170.667s76.373-170.667 170.667-170.667 170.667 76.373 170.667 170.667-76.373 170.667-170.667 170.667zM893.44 490.667c-19.627 177.92-160.853 319.147-338.773 338.773v87.893h-85.333v-87.893c-177.92-19.627-319.147-160.853-338.773-338.773h-87.893v-85.333h87.893c19.627-177.92 160.853-319.147 338.773-338.773v-87.893h85.333v87.893c177.92 19.627 319.147 160.853 338.773 338.773h87.893v85.333h-87.893zM512 149.333c-165.12 0-298.667 133.547-298.667 298.667s133.547 298.667 298.667 298.667 298.667-133.547 298.667-298.667-133.547-298.667-298.667-298.667z" />
<glyph unicode="&#xe619;" glyph-name="dash-nextshifts" d="M566.906 64.155c-23.053-4.214-46.85-6.445-71.142-6.445-215.161 0-390.414 175.005-390.414 390.414 0 215.161 175.005 390.414 390.414 390.414 215.161 0 390.414-175.005 390.414-390.414 0-3.222 0-6.197 0-9.172 1.735 0.248 3.47 0.248 5.206 0.248 23.797 0 44.371-14.873 52.551-35.695h0.496c15.617 0 30.489-3.222 44.123-8.924 1.983 17.6 2.975 35.447 2.975 53.542 0 273.414-222.35 495.764-495.764 495.764s-495.764-222.598-495.764-496.012c0-273.414 222.35-495.764 495.764-495.764 35.943 0 71.142 3.966 105.102 11.155-20.822 20.822-33.712 49.576-33.712 81.305l-0.248 19.583zM442.965 698.98v-217.888h-137.079c-29.002 0-52.799-23.549-52.799-52.799 0-29.002 23.549-52.799 52.799-52.799h189.878c29.25 0 52.799 23.549 52.799 52.799v270.687c0 29.002-23.549 52.799-52.799 52.799s-52.799-23.549-52.799-52.799zM763.972 315.507c0 7.189-2.479 13.881-6.941 19.335v47.593c0 12.89-10.411 23.053-23.053 23.053h-0.496c-12.89 0-23.053-10.411-23.053-23.053v-47.593c-4.462-5.453-6.941-12.146-6.941-19.335 0-16.608 13.634-30.242 30.489-30.242h0.248c16.112 0 29.746 13.634 29.746 30.242zM834.618 334.594v47.841c0 12.89-10.411 23.053-23.053 23.053-12.89 0-23.053-10.411-23.053-23.053v-47.593c-4.462-5.453-6.941-12.146-6.941-19.335 0-16.608 13.634-30.242 30.242-30.242s30.242 13.634 30.242 30.242c-0.496 6.941-2.727 13.881-7.436 19.087zM889.4 405.488c-12.89 0-23.053-10.411-23.053-23.053v-47.593c-4.462-5.453-6.941-12.146-6.941-19.335 0-16.608 13.634-30.242 30.242-30.242s30.242 13.634 30.242 30.242c0 6.941-2.479 13.881-6.941 19.335v47.593c-0.496 12.642-10.907 23.053-23.549 23.053zM942.447 369.793h-8.676v-46.354h8.676c19.335 0 35.199-15.864 35.199-35.199v-243.42c0-19.335-15.864-35.199-35.199-35.199h-262.259c-19.335 0-35.199 15.864-35.199 35.199v243.42c0 19.335 15.864 35.199 35.199 35.199h8.676v46.354h-8.676c-44.867 0-81.553-36.439-81.553-81.553v-243.42c0-44.867 36.439-81.553 81.553-81.553h262.507c44.867 0 81.553 36.439 81.553 81.553v243.42c-0.248 44.867-36.687 81.553-81.801 81.553zM710.429 178.428c-16.608 0-30.242-13.634-30.242-30.242s13.634-30.242 30.242-30.242c16.608 0 30.242 13.634 30.242 30.242s-13.634 30.242-30.242 30.242zM811.317 178.428c-16.608 0-30.242-13.634-30.242-30.242s13.634-30.242 30.242-30.242 30.242 13.634 30.242 30.242c0 16.608-13.634 30.242-30.242 30.242zM912.205 178.428c-16.608 0-30.242-13.634-30.242-30.242s13.634-30.242 30.242-30.242c16.608 0 30.242 13.634 30.242 30.242s-13.634 30.242-30.242 30.242zM710.429 97.371c-16.608 0-30.242-13.634-30.242-30.242s13.634-30.242 30.242-30.242c16.608 0 30.242 13.634 30.242 30.242s-13.634 30.242-30.242 30.242zM811.317 97.371c-16.608 0-30.242-13.634-30.242-30.242s13.634-30.242 30.242-30.242 30.242 13.634 30.242 30.242c0 16.608-13.634 30.242-30.242 30.242zM912.205 97.371c-16.608 0-30.242-13.634-30.242-30.242s13.634-30.242 30.242-30.242c16.608 0 30.242 13.634 30.242 30.242s-13.634 30.242-30.242 30.242zM912.205 259.486c-16.608 0-30.242-13.634-30.242-30.242s13.634-30.242 30.242-30.242c16.608 0 30.242 13.634 30.242 30.242s-13.634 30.242-30.242 30.242z" />
<glyph unicode="&#xe61a;" glyph-name="dash-nextpayrollpreparation" horiz-adv-x="1267" d="M909.271 960c77.057 0 138.702-61.645 138.702-138.702s-61.645-138.702-138.702-138.702-138.702 61.645-138.702 138.702c-1.712 77.057 61.645 138.702 138.702 138.702zM1075.371 650.060h-702.074l44.522 111.304h-263.706l44.522-111.304h-42.809c-89.043 0-89.043-138.702 0-138.702h68.495c-128.428-29.11-224.321-143.839-224.321-280.829 0-160.963 130.14-291.104 289.391-291.104s289.391 130.14 289.391 289.391c0 136.99-95.893 251.719-224.321 282.542h333.913v-575.358h402.408v508.575h51.371v-443.505c0-89.043 125.003-87.331 125.003 0v448.642c0 106.167-87.331 200.348-191.786 200.348zM345.9 713.418l-23.973-63.358h-70.207l-25.686 63.358h119.866zM527.411 230.528c0-131.853-106.167-238.020-238.020-238.020-130.14 0-238.020 106.167-238.020 238.020 0 130.14 107.88 236.308 238.020 236.308 131.853 0 238.020-106.167 238.020-236.308zM373.298 215.117c-15.411-11.987-35.96-18.836-65.070-18.836h-53.084v-92.468h-53.084v256.856h109.592c25.686 0 46.234-6.849 59.933-20.548 15.411-13.699 22.261-34.247 22.261-61.645 1.712-29.11-6.849-49.659-20.548-63.358zM332.201 307.585c-6.849 5.137-17.124 8.562-29.11 8.562h-47.946v-75.344h47.946c11.987 0 22.261 3.425 29.11 8.562 6.849 6.849 10.274 15.411 10.274 29.11s-3.425 23.973-10.274 29.11zM138.702 304.161h315.077v-17.124h-315.077v17.124zM138.702 271.625h315.077v-17.124h-315.077v17.124z" />
<glyph unicode="&#xe61b;" glyph-name="dash-nextpaydate" d="M421.415 798.523c-11.815 7.877-19.692 3.938-23.631 0l-98.462-90.585c-15.754 3.938-27.569 0-39.385-11.815-15.754-15.754-15.754-43.323 0-63.015 3.938-3.938 3.938-3.938 7.877-3.938l7.877-98.462c0-7.877 3.938-15.754 19.692-15.754 11.815 0 19.692 11.815 19.692 15.754l7.877 102.4c0 0 0 0 0 0 11.815 11.815 11.815 27.569 11.815 39.385l86.646 102.4c3.938 3.938 7.877 15.754 0 23.631zM787.692 684.308c23.631 0 39.385 15.754 39.385 39.385v118.154c0 23.631-15.754 39.385-39.385 39.385s-39.385-15.754-39.385-39.385v-118.154c0-23.631 15.754-39.385 39.385-39.385zM0 664.615c0-161.477 133.908-295.385 295.385-295.385s295.385 133.908 295.385 295.385c0 161.477-133.908 295.385-295.385 295.385-55.138 0-106.338-15.754-149.662-39.385v0c15.754 0 27.569-7.877 35.446-15.754s11.815-19.692 15.754-31.508c31.508 15.754 63.015 23.631 98.462 23.631 126.031 0 232.369-102.4 232.369-232.369 0-126.031-102.4-232.369-232.369-232.369-126.031 0-232.369 102.4-232.369 232.369 0 0 3.938 0 3.938 0 0 70.892 31.508 98.462 31.508 98.462l31.508-27.569c3.938-3.938 7.877-3.938 11.815-3.938s7.877 3.938 7.877 7.877c11.815 55.138 7.877 126.031 7.877 129.969s-3.938 7.877-3.938 7.877-3.938 3.938-7.877 3.938v0c-3.938 0-70.892 3.938-133.908-7.877-3.938 0-7.877-3.938-7.877-7.877s0-11.815 3.938-11.815l35.446-31.508c0 0-11.815-15.754-19.692-47.262-15.754-31.508-23.631-70.892-23.631-110.277zM433.231 172.308h78.769v-78.769h-78.769v78.769zM275.692 329.846h78.769v-78.769h-78.769v78.769zM275.692 172.308h78.769v-78.769h-78.769v78.769zM590.769 329.846h78.769v-78.769h-78.769v78.769zM590.769 172.308h78.769v-78.769h-78.769v78.769zM590.769 487.385h78.769v-78.769h-78.769v78.769zM905.846 802.462v0h-39.385v-78.769c0-43.323-35.446-78.769-78.769-78.769s-78.769 35.446-78.769 78.769v78.769h-110.277c19.692-43.323 31.508-90.585 31.508-137.846 0-35.446-3.938-66.954-15.754-98.462h330.831v-512c0-23.631-15.754-39.385-39.385-39.385h-708.923c-23.631 0-39.385 15.754-39.385 39.385v307.2c-27.569 11.815-55.138 31.508-78.769 51.2v-354.462c0-66.954 51.2-118.154 118.154-118.154h708.923c66.954 0 118.154 51.2 118.154 118.154v626.215c0 66.954-51.2 118.154-118.154 118.154zM433.231 329.846h78.769v-78.769h-78.769v78.769zM748.308 487.385h78.769v-78.769h-78.769v78.769zM748.308 172.308h78.769v-78.769h-78.769v78.769zM748.308 329.846h78.769v-78.769h-78.769v78.769z" />
<glyph unicode="&#xe61c;" glyph-name="dash-mypayslips" horiz-adv-x="689" d="M674.123 893.431l-55.561 55.561c-15.137 14.965-41.971 14.449-56.421-0.172l-36.123-36.123-35.607 35.779c-15.137 14.793-40.939 15.137-56.421-0.172l-35.607-35.607-32.511 32.511c-15.137 14.793-40.939 15.137-56.421-0.172l-32.339-32.339-32.683 32.511c-15.137 14.793-40.939 15.137-56.421-0.172l-32.339-32.339-32.511 32.511c-15.137 14.793-40.939 15.137-56.421-0.172l-51.604-51.604c-9.805-9.805-15.137-22.706-15.137-36.467v-817.411c0-13.761 5.332-26.662 15.137-36.467l51.776-51.776c15.137-14.793 40.939-15.137 56.421 0.172l32.339 32.339 32.511-32.511c15.137-14.793 40.939-15.137 56.421 0.172l32.339 32.339 32.683-32.511c15.137-14.793 40.939-15.137 56.421 0.172l32.339 32.339 35.779-35.779c15.137-14.793 40.939-15.137 56.421 0.172l35.607 35.607 35.951-35.951c7.397-7.569 17.889-11.869 28.554-11.869 10.493 0 20.642 4.128 28.382 11.697l55.389 55.389c9.805 9.805 15.137 22.706 15.137 36.467v817.411c-0.344 13.761-5.676 26.662-15.481 36.467zM620.627 46.605l-24.77-24.598c-1.376-1.376-3.268-2.236-5.332-2.236s-3.956 0.86-5.332 2.236l-30.963 30.963c-7.569 7.397-17.545 11.525-28.038 11.525-10.665 0-20.642-4.128-28.21-11.697l-30.446-30.274c-1.376-1.376-3.268-2.236-5.332-2.236s-3.956 0.86-5.332 2.236l-30.446 30.446c-15.137 14.793-40.939 15.137-56.421-0.172l-27.006-27.178c-2.924-2.924-7.741-2.924-10.665 0l-27.178 27.35c-15.137 14.793-40.939 15.137-56.421-0.172l-27.006-27.006c-2.924-2.924-7.741-2.924-10.665 0l-27.35 27.178c-15.137 14.793-40.939 15.137-56.421-0.172l-27.006-27.006c-2.924-2.924-7.741-2.924-10.665 0l-20.986 20.814v803.306l20.986 20.986c1.376 1.376 3.268 2.236 5.332 2.236s3.956-0.86 5.332-2.236l27.178-27.178c15.137-14.793 40.939-15.137 56.421 0.172l27.006 27.006c2.924 2.924 7.741 2.924 10.665 0l27.35-27.178c15.137-14.793 40.939-15.137 56.421 0.172l27.006 27.006c2.924 2.924 7.741 2.924 10.665 0l27.35-27.178c15.137-14.793 40.939-15.137 56.421 0.172l30.102 30.102c1.376 1.376 3.268 2.236 5.332 2.236s3.956-0.86 5.332-2.236l30.274-30.102c14.965-15.137 40.939-15.309 56.593 0l30.791 30.791c1.376 1.376 3.268 2.236 5.332 2.236s3.956-0.86 5.332-2.236l24.77-24.77v-803.306zM162.209 668.264h182.507c18.922 0 34.403 15.309 34.403 34.403 0 18.922-15.309 34.403-34.403 34.403h-182.507c-18.922 0-34.403-15.309-34.403-34.403 0-18.922 15.309-34.403 34.403-34.403zM516.386 565.228h-354.177c-18.922 0-34.403-15.309-34.403-34.403 0-18.922 15.309-34.403 34.403-34.403h354.177c18.922 0 34.403 15.309 34.403 34.403s-15.481 34.403-34.403 34.403zM162.209 324.924h251.141c18.922 0 34.403 15.309 34.403 34.403 0 18.922-15.309 34.403-34.403 34.403h-251.141c-18.922 0-34.403-15.309-34.403-34.403s15.309-34.403 34.403-34.403zM516.386 221.887h-354.177c-18.922 0-34.403-15.309-34.403-34.403 0-18.922 15.309-34.403 34.403-34.403h354.177c18.922 0 34.403 15.309 34.403 34.403 0 18.922-15.481 34.403-34.403 34.403z" />
<glyph unicode="&#xe61d;" glyph-name="dash-employeesonleave" horiz-adv-x="1198" d="M1198.48 762.637v0c0-31.464-54.346-80.089-54.346-80.089l-280.313-131.575-94.391-586.369-74.369-28.603-37.184 437.631-40.045 62.927-328.939-154.458-74.369-228.827-17.162-11.441-42.905 217.385-22.883 5.721h-5.721l2.86 5.721 11.441 20.022-140.156 171.62 17.162 5.721 223.106-85.81 328.939 157.318-22.883 71.508-314.637 308.916 68.648 40.045 512-300.335 280.313 131.575c-2.86-5.721 105.832 14.302 105.832-28.603z" />
<glyph unicode="&#xe61e;" glyph-name="dash-employeesclockedin" d="M512-64c-282.049 0-512 229.951-512 512s229.951 512 512 512 512-229.951 512-512c0-282.049-229.951-512-512-512zM512 846.821c-219.172 0-398.821-179.649-398.821-398.821s179.649-398.821 398.821-398.821 398.821 179.649 398.821 398.821c0 219.172-179.649 398.821-398.821 398.821zM508.407 192.898c21.558 0 39.523-17.965 39.523-39.523s-17.965-39.523-39.523-39.523-39.523 17.965-39.523 39.523c-1.796 21.558 16.168 39.523 39.523 39.523zM844.351 448c0-21.828-17.695-39.523-39.523-39.523s-39.523 17.695-39.523 39.523c0 21.828 17.695 39.523 39.523 39.523s39.523-17.695 39.523-39.523zM756.323 643.818c0-21.828-17.695-39.523-39.523-39.523s-39.523 17.695-39.523 39.523c0 21.828 17.695 39.523 39.523 39.523s39.523-17.695 39.523-39.523zM707.818 291.705c21.558 0 39.523-17.965 39.523-39.523s-17.965-39.523-39.523-39.523-39.523 17.965-39.523 39.523c-1.796 21.558 16.168 39.523 39.523 39.523zM371.874 261.165c-10.779 0-19.761 3.593-28.744 12.575-16.168 16.168-16.168 41.319 0 55.691l125.754 125.754v253.305c0 21.558 17.965 39.523 39.523 39.523s39.523-17.965 39.523-39.523v-269.474c0-10.779-3.593-21.558-12.575-28.744l-136.533-136.533c-7.186-7.186-17.965-12.575-26.947-12.575z" />
<glyph unicode="&#xe61f;" glyph-name="dash-attendance" horiz-adv-x="1014" d="M44.465 210.636h28.771v255.019h-35.31c-18.309 0-37.926-17.001-37.926-37.926v-177.86c0-24.848 18.309-39.234 37.926-39.234h6.539zM625.124 859.3c7.847 47.080-24.848 92.853-73.236 99.392-47.080 7.847-92.853-24.848-99.392-73.236-7.847-47.080 24.848-92.853 73.236-99.392 47.080-6.539 92.853 26.156 99.392 73.236zM393.645 638.284l-52.312-173.936h-34.003v-255.019h-18.309v255.019h-43.157v35.31c0 1.308 0 3.923-1.308 5.231l82.391 102.008 66.697 31.387zM223.632 464.347h-68.005v37.926h15.693c1.308-1.308 3.923-5.231 5.231-7.847 13.078-11.77 32.695-11.77 47.080-3.923v-26.156zM782.059 419.883c-1.308 11.77-5.231 20.925-15.693 28.771l-119.009 96.777-62.774 166.089c-1.308 3.923-3.923 7.847-5.231 9.155-11.77 18.309-28.771 34.003-51.004 41.849-18.309 5.231-37.926 5.231-54.927 0-1.308 0-5.231-1.308-7.847-1.308l-183.091-73.236c-5.231-1.308-13.078-7.847-17.001-13.078l-96.777-116.393c-7.847-9.155-9.155-20.925-9.155-30.079-13.078 0-26.156-7.847-26.156-20.925v-35.31h-43.157v-255.019h156.935l-115.086-115.086c-22.232-22.232-22.232-60.158 0-82.391s60.158-22.232 82.391 0l137.318 139.934c3.923 3.923 7.847 9.155 11.77 15.693 1.308 1.308 1.308 5.231 3.923 7.847l43.157 137.318 116.393-116.393v-204.015c0-32.695 26.156-58.851 58.851-58.851s58.851 26.156 58.851 58.851v221.017c0 1.308 0 1.308 0 3.923v0c-1.308 11.77-5.231 20.925-11.77 30.079l-128.163 132.087 49.696 160.858 15.693-39.234c1.308-7.847 7.847-13.078 13.078-18.309l128.163-102.008c18.309-15.693 45.773-11.77 58.851 5.231 10.462 5.231 11.77 15.693 11.77 26.156zM663.050 771.678h226.248v-147.78h-226.248v147.78zM831.755 880.225l180.475-181.783-180.475-180.475z" />
<glyph unicode="&#xe900;" glyph-name="rn-header" horiz-adv-x="1170" d="M909.41 476.038v0c-18.286 185.295-174.324 330.362-364.495 330.362-202.362 0-365.714-163.352-365.714-365.714s163.352-365.714 365.714-365.714c79.238 0 152.381 25.6 212.114 68.267l201.143-78.019-48.762 410.819zM477.867 334.629c-24.381 0-43.886 19.505-43.886 43.886s19.505 43.886 43.886 43.886c24.381 0 43.886-19.505 43.886-43.886s-19.505-43.886-43.886-43.886zM585.143 334.629c-24.381 0-43.886 19.505-43.886 43.886s19.505 43.886 43.886 43.886c24.381 0 43.886-19.505 43.886-43.886s-19.505-43.886-43.886-43.886zM692.419 334.629c-24.381 0-43.886 19.505-43.886 43.886s19.505 43.886 43.886 43.886c24.381 0 43.886-19.505 43.886-43.886-1.219-24.381-20.724-43.886-43.886-43.886z" />
<glyph unicode="&#xe901;" glyph-name="menu-deductions" d="M438.501 376.991v106.297h106.405v-40.808c21.974 18.943 46.437 34.53 72.849 46.545v432.981c0 21-16.995 37.994-37.994 37.994h-533.649c-21 0-37.994-16.995-37.994-37.994v-775.361c0-21 16.995-37.994 37.994-37.994h409.167c-11.366 32.474-17.211 66.463-17.211 101.318 0 5.196 0.108 10.392 0.433 15.587v151.435zM544.907 549.642h-106.405v106.405h106.405v-106.405zM187.373 204.232h-106.297v106.405h106.405l-0.108-106.405zM187.373 376.991h-106.297v106.405h106.405l-0.108-106.405zM187.373 549.642h-106.297v106.405h106.405l-0.108-106.405zM366.194 204.232h-106.405v106.405h106.405v-106.405zM366.194 376.991h-106.405v106.405h106.405v-106.405zM366.194 549.642h-106.405v106.405h106.405v-106.405zM81.076 743.834v137.471h463.939v-137.471h-463.939zM691.362 184.531h76.313c25.221 0 43.19 4.655 53.798 14.072 0.649 0.541 1.191 1.082 1.732 1.624h-131.843v-15.696zM803.288 287.364c-6.603 1.732-18.726 2.598-36.479 2.598h-75.447v-17.644h134.765c-5.953 7.469-13.639 12.448-22.84 15.046zM691.362 244.715v-16.886h145.265c0.541 3.356 0.758 6.819 0.758 10.392 0 2.165-0.108 4.33-0.325 6.495h-145.698zM744.619 484.046c-45.788 0-88.978-11.258-126.863-31.066-27.278-14.288-51.958-33.015-72.849-55.313-46.004-49.035-74.256-114.956-74.256-187.589 0-1.948 0-3.789 0.108-5.737 0.758-33.773 7.361-66.030 19.268-95.689 40.267-101.101 139.095-172.651 254.593-172.651 151.327 0 273.969 122.642 273.969 273.969s-122.642 274.077-273.969 274.077zM912.291 244.715h-34.855c0.108-1.732 0.108-3.464 0.108-5.304 0-4.005-0.216-7.902-0.649-11.582h35.396v-27.603h-42.54c-3.897-8.876-9.309-16.995-16.129-24.463-16.020-17.427-44.814-26.087-86.596-26.087h-75.663v-119.936h-39.077v170.486h-45.138v27.603h45.138v16.886h-45.138v27.603h45.138v52.499h111.384c19.592 0 34.53-0.974 44.922-2.814 14.505-2.381 26.628-7.036 36.479-13.747 9.742-6.819 17.644-16.237 23.706-28.468 1.191-2.381 2.273-4.871 3.247-7.361h40.484v-27.711z" />
<glyph unicode="&#xe902;" glyph-name="no-record" d="M576 64h-448v768h448v-256h256v-192h128v281.6l-294.4 294.4h-665.6v-1024h576zM934.4 300.8l-102.4-102.4-102.4 102.4-70.4-70.4 102.4-102.4-102.4-102.4 70.4-70.4 102.4 102.4 102.4-102.4 70.4 70.4-102.4 102.4 102.4 102.4z" />
<glyph unicode="&#xe905;" glyph-name="menu-earnings" d="M989.145 742.752c-6.928 22.082-27.819 37.453-49.901 37.453-5.521 0-11.149-1.515-15.154-2.706l-71.983-22.082v-110.735l102.508 31.824c13.855 4.222 24.788 13.855 30.525 26.304 6.711 12.232 8.010 26.087 4.005 39.942zM897.786 589.152h-45.679v-105.214h45.679c29.010 0 52.607 23.597 52.607 52.607s-23.597 52.607-52.607 52.607zM852.107 442.371v-83.132h45.679c29.010 0 52.607 23.597 52.607 52.607s-23.597 52.607-52.607 52.607h-45.679v-22.082zM896.271 342.677h-44.164v-104.998h44.164c29.010 0 52.607 23.597 52.607 52.607s-23.489 52.391-52.607 52.391zM774.603 960h-397.368v-339.132l25.113 11.149v303.195h372.255zM511.567 684.732h-23.597v164.533h112.142v-23.597h-88.545zM777.417 684.732h-23.597v140.935h-88.653v23.597h112.25zM777.417 190.485h-112.25v23.597h88.653v96.771h23.597zM694.285 756.499h-141.26v23.489h141.26zM694.285 243.092h-153.708v23.597h153.708zM830.025 892.238v13.855h-395.961v-453.981h24.788v428.976h348.874v-721.13h-283.819c-12.448-76.205-84.431-125.889-87.137-127.296-2.706-1.515-5.521-2.706-8.227-2.706-5.521 0-9.634 2.706-12.448 6.928-4.222 6.928-2.706 16.67 4.222 20.891 0 0 56.829 38.752 73.499 102.508 2.706 9.634 4.222 20.891 6.928 30.525h100.993v23.597h-96.771c4.222 42.973 0 73.499 0 74.689 0 1.515 0 2.706 0 4.222h171.569c34.53 0 70.468 20.891 70.468 62.349s-30.525 67.762-70.468 67.762h-274.185v175.682c-37.453-16.67-62.349-27.819-67.762-30.525-44.164-22.082-77.504-74.689-85.838-95.581-9.742-20.891-216.058-537.005-216.058-537.005h428.976c0 0 103.807 42.973 159.121 103.807 17.86 20.891 44.164 62.349 58.128 95.581h153.6l-2.49 756.851zM629.23 662.326c-76.205 0-138.446-47.195-138.446-105.214s62.349-105.214 138.446-105.214 138.446 47.195 138.446 105.214c1.299 58.344-61.050 105.214-138.446 105.214zM701.213 519.875h-73.499v-20.891h-19.376v20.891h-27.819v51.2c0 12.448 2.706 20.891 9.634 27.819 4.222 5.521 11.149 8.227 17.86 9.634v22.082h19.376v-20.891c9.634-1.515 16.67-4.222 20.891-9.634 5.521-6.928 8.227-16.67 8.227-30.525v-24.788h42.973v-24.788h1.732v-0.108zM629.23 583.631v-38.752h9.634v22.19c0 5.521-1.515 9.634-4.222 13.855-2.706 1.299-4.005 2.706-5.412 2.706zM602.926 567.070v-22.082h6.928v37.453c-1.515 0-2.706-1.515-2.706-1.515-2.814-4.222-4.222-8.443-4.222-13.855z" />
<glyph unicode="&#xe906;" glyph-name="menu-leaves" d="M801.717 845.112c0-63.451-51.437-114.888-114.888-114.888s-114.888 51.437-114.888 114.888c0 63.451 51.437 114.888 114.888 114.888s114.888-51.437 114.888-114.888zM921.6 626.159c-15.818 19.148-44.124 20.813-63.272 4.995-20.813-17.483-61.607-23.311-99.070-13.32-29.971 8.325-52.449 24.976-59.109 44.956-0.833 1.665-1.665 3.33-2.498 4.995-7.493 24.143-25.808 44.956-46.621 58.276-4.995 4.163-9.99 7.493-16.65 9.158-2.498 0.833-5.828 2.498-8.325 3.33h1.665l-110.725 99.902-35.798 17.483 14.153-34.966 102.4-70.764-202.302 82.42-50.784-11.655 24.143-37.463 170.667-41.626c-44.124-4.995-89.912-19.148-130.706-42.459-63.272-35.798-105.73-86.582-121.548-143.193 0-0.833-0.833-1.665-0.833-3.33-4.995 1.665-9.99 0-13.32-3.33l-11.655-10.823-46.621 49.951-124.046-116.553 157.346-168.169 124.046 116.553-46.621 49.951 11.655 10.823c4.995 4.995 5.828 12.488 1.665 18.315 16.65 3.33 30.803 14.985 34.966 32.468 9.158 33.301 38.296 65.769 79.089 89.080 9.158 4.995 18.315 9.99 27.473 13.32l-61.607-193.145c-4.163-11.655-4.163-23.311-2.498-34.133l-43.291-115.72-134.868-6.66c-29.138-1.665-51.616-25.808-49.951-54.946 1.665-28.306 24.976-49.951 52.449-49.951 0.833 0 1.665 0 2.498 0l169.834 8.325c20.813 0.833 39.128 14.153 46.621 34.133l38.296 101.567c4.163-0.833 9.158-2.498 14.153-3.33l69.099-99.902-59.109-219.785c-7.493-28.306 9.158-57.444 37.463-64.937 4.995-1.665 9.158-1.665 14.153-1.665 23.311 0 44.956 15.818 50.784 39.128l65.769 243.096c4.163 14.985 1.665 30.803-7.493 44.124l-69.099 99.902c3.33 4.995 5.828 10.823 8.325 17.483l57.444 178.992c16.65-10.823 36.631-19.148 57.444-25.808 19.98-5.828 40.793-8.325 61.607-8.325 45.789 0 89.080 13.32 119.050 39.128 18.315 17.483 19.98 44.956 4.163 64.104zM329.678 491.291l-11.655-10.823-47.454 50.784 11.655 10.823c0.833 0.833 2.498 0.833 3.33 0l1.665-1.665c1.665-17.483 14.153-33.301 32.468-38.296 1.665 0 2.498-0.833 4.163-0.833l5.828-5.828c0.833-1.665 0.833-3.33 0-4.163z" />
</font>
</defs>
</svg>
